<svg xmlns="http://www.w3.org/2000/svg" version="1.1" xmlns:xlink="http://www.w3.org/1999/xlink" viewBox="0 0 200 200"><rect width="200" height="200" fill="url('#gradient')"></rect><defs><linearGradient id="gradient" gradientTransform="rotate(30 0.5 0.5)"><stop offset="0%" stop-color="#3b60ff"></stop><stop offset="100%" stop-color="#000000"></stop></linearGradient></defs><g><g fill="#ffffff" transform="matrix(4.889529967669734,0,0,4.889529967669734,-1.2407268873585764,134.76393358944006)" stroke="#ff0000" stroke-width="0"><path d="M12.95-14.22L12.95 0L9.54 0L4.50-8.85L4.50 0L1.07 0L1.07-14.22L4.50-14.22L9.53-5.37L9.53-14.22L12.95-14.22ZM24.20 0L23.37-2.66L18.67-2.66L17.85 0L14.19 0L19.40-14.22L22.63-14.22L27.88 0L24.20 0ZM21.02-10.23L19.49-5.30L22.55-5.30L21.02-10.23ZM30.86-14.22L33.68-3.87L36.51-14.22L40.34-14.22L35.56 0L31.81 0L27.06-14.22L30.86-14.22Z"></path></g></g></svg>